<svg width="100" height="21" viewBox="0 0 100 21" fill="none" xmlns="http://www.w3.org/2000/svg">
<rect width="100" height="20" fill="#8E3535"/>
<path d="M11.56 11.44V16.84H18.736V19H9.16V2.2H18.736V4.36H11.56V9.28H17.296V11.44H11.56ZM21.6175 13.768V11.68H28.7695V13.768H21.6175ZM42.1009 14.8H44.5009V17.512L41.7169 19.12H35.4049L32.6209 17.512V3.688L35.4049 2.08H41.7169L44.5009 3.688V6.4H42.1009V4.24H35.0209V16.96H42.1009V14.8ZM61.1819 17.512L58.3979 19.12H51.3659L48.5819 17.512V3.688L51.3659 2.08H58.3979L61.1819 3.688V17.512ZM50.9819 4.24V16.96H58.7819V4.24H50.9819ZM80.1438 19V5.32H80.0958L75.1518 19H72.7518L67.8318 5.32H67.7838V19H65.5038V2.2H68.8878L73.9278 16.216H73.9758L79.0398 2.2H82.4238V19H80.1438ZM86.9781 19V15.4H90.5781V19H86.9781Z" fill="black"/>
</svg>
